<mxfile host="app.diagrams.net" agent="Mozilla/5.0 (Windows NT 10.0; Win64; x64) AppleWebKit/537.36 (KHTML, like Gecko) Chrome/138.0.0.0 Safari/537.36" version="28.0.7">
  <diagram name="หน้า-1" id="ODvnfyLK4CuDRUQNn2qx">
    <mxGraphModel dx="2899" dy="521" grid="1" gridSize="10" guides="1" tooltips="1" connect="1" arrows="1" fold="1" page="1" pageScale="1" pageWidth="827" pageHeight="1169" math="0" shadow="0">
      <root>
        <mxCell id="WIyWlLk6GJQsqaUBKTNV-0" />
        <mxCell id="WIyWlLk6GJQsqaUBKTNV-1" parent="WIyWlLk6GJQsqaUBKTNV-0" />
        <mxCell id="650" value="ทบทวนสัญลักษณ์" style="swimlane;fontFamily=Sarabun;fontSource=https%3A%2F%2Ffonts.googleapis.com%2Fcss%3Ffamily%3DSarabun;" parent="WIyWlLk6GJQsqaUBKTNV-1" vertex="1">
          <mxGeometry x="-720" y="20" width="640" height="290" as="geometry" />
        </mxCell>
        <mxCell id="651" value="&lt;font data-font-src=&quot;https://fonts.googleapis.com/css?family=Sarabun&quot; face=&quot;Sarabun&quot;&gt;เริ่มต้น&lt;/font&gt;" style="ellipse;whiteSpace=wrap;html=1;" parent="650" vertex="1">
          <mxGeometry x="20" y="40" width="130" height="30" as="geometry" />
        </mxCell>
        <mxCell id="652" value="" style="endArrow=classic;html=1;rounded=0;" parent="650" edge="1">
          <mxGeometry width="50" height="50" relative="1" as="geometry">
            <mxPoint x="84.5" y="70" as="sourcePoint" />
            <mxPoint x="84.5" y="120" as="targetPoint" />
          </mxGeometry>
        </mxCell>
        <mxCell id="653" value="&lt;font face=&quot;Sarabun&quot;&gt;สิ้นสุด&lt;/font&gt;" style="ellipse;whiteSpace=wrap;html=1;" parent="650" vertex="1">
          <mxGeometry x="150" y="90" width="130" height="30" as="geometry" />
        </mxCell>
        <mxCell id="654" value="" style="endArrow=classic;html=1;rounded=0;" parent="650" edge="1">
          <mxGeometry width="50" height="50" relative="1" as="geometry">
            <mxPoint x="214.5" y="40" as="sourcePoint" />
            <mxPoint x="214.5" y="90" as="targetPoint" />
          </mxGeometry>
        </mxCell>
        <mxCell id="655" value="กระบวนการ" style="rounded=0;whiteSpace=wrap;html=1;fontFamily=Sarabun;fontSource=https%3A%2F%2Ffonts.googleapis.com%2Fcss%3Ffamily%3DSarabun;" parent="650" vertex="1">
          <mxGeometry x="320" y="70" width="120" height="30" as="geometry" />
        </mxCell>
        <mxCell id="656" value="" style="endArrow=classic;html=1;rounded=0;" parent="650" edge="1">
          <mxGeometry width="50" height="50" relative="1" as="geometry">
            <mxPoint x="379" y="40" as="sourcePoint" />
            <mxPoint x="379.5" y="70" as="targetPoint" />
          </mxGeometry>
        </mxCell>
        <mxCell id="657" value="" style="endArrow=classic;html=1;rounded=0;" parent="650" edge="1">
          <mxGeometry width="50" height="50" relative="1" as="geometry">
            <mxPoint x="379.75" y="100" as="sourcePoint" />
            <mxPoint x="380.25" y="130" as="targetPoint" />
          </mxGeometry>
        </mxCell>
        <mxCell id="658" value="ประโยคเงื่อนไข" style="rhombus;whiteSpace=wrap;html=1;fontFamily=Sarabun;fontSource=https%3A%2F%2Ffonts.googleapis.com%2Fcss%3Ffamily%3DSarabun;" parent="650" vertex="1">
          <mxGeometry x="490" y="60" width="100" height="60" as="geometry" />
        </mxCell>
        <mxCell id="659" value="" style="endArrow=classic;html=1;rounded=0;" parent="650" edge="1">
          <mxGeometry width="50" height="50" relative="1" as="geometry">
            <mxPoint x="539.71" y="30" as="sourcePoint" />
            <mxPoint x="540.21" y="60" as="targetPoint" />
          </mxGeometry>
        </mxCell>
        <mxCell id="660" value="" style="endArrow=classic;html=1;rounded=0;" parent="650" edge="1">
          <mxGeometry width="50" height="50" relative="1" as="geometry">
            <mxPoint x="539.71" y="120" as="sourcePoint" />
            <mxPoint x="540" y="175" as="targetPoint" />
          </mxGeometry>
        </mxCell>
        <mxCell id="661" value="จริง" style="edgeLabel;html=1;align=center;verticalAlign=middle;resizable=0;points=[];fontFamily=Sarabun;fontSource=https%3A%2F%2Ffonts.googleapis.com%2Fcss%3Ffamily%3DSarabun;" parent="660" vertex="1" connectable="0">
          <mxGeometry x="-0.4142" y="-1" relative="1" as="geometry">
            <mxPoint as="offset" />
          </mxGeometry>
        </mxCell>
        <mxCell id="662" value="" style="endArrow=classic;html=1;rounded=0;exitX=1;exitY=0.5;exitDx=0;exitDy=0;" parent="650" source="658" edge="1">
          <mxGeometry width="50" height="50" relative="1" as="geometry">
            <mxPoint x="620" y="95" as="sourcePoint" />
            <mxPoint x="610" y="175" as="targetPoint" />
            <Array as="points">
              <mxPoint x="610" y="90" />
            </Array>
          </mxGeometry>
        </mxCell>
        <mxCell id="663" value="&lt;font data-font-src=&quot;https://fonts.googleapis.com/css?family=Sarabun&quot; face=&quot;Sarabun&quot;&gt;เท็จ&lt;/font&gt;" style="edgeLabel;html=1;align=center;verticalAlign=middle;resizable=0;points=[];" parent="662" vertex="1" connectable="0">
          <mxGeometry x="-0.0019" y="-2" relative="1" as="geometry">
            <mxPoint as="offset" />
          </mxGeometry>
        </mxCell>
        <mxCell id="664" value="&lt;font data-font-src=&quot;https://fonts.googleapis.com/css?family=Sarabun&quot; face=&quot;Sarabun&quot;&gt;ฟังก์ชัน/โมดูล&lt;/font&gt;" style="shape=process;whiteSpace=wrap;html=1;backgroundOutline=1;" parent="650" vertex="1">
          <mxGeometry x="25" y="180" width="120" height="30" as="geometry" />
        </mxCell>
        <mxCell id="665" value="" style="endArrow=classic;html=1;rounded=0;" parent="650" edge="1">
          <mxGeometry width="50" height="50" relative="1" as="geometry">
            <mxPoint x="84.70999999999998" y="150" as="sourcePoint" />
            <mxPoint x="85.20999999999998" y="180" as="targetPoint" />
          </mxGeometry>
        </mxCell>
        <mxCell id="666" value="" style="endArrow=classic;html=1;rounded=0;" parent="650" edge="1">
          <mxGeometry width="50" height="50" relative="1" as="geometry">
            <mxPoint x="84.70999999999998" y="210" as="sourcePoint" />
            <mxPoint x="85.20999999999998" y="240" as="targetPoint" />
          </mxGeometry>
        </mxCell>
        <mxCell id="667" value="" style="strokeWidth=2;html=1;shape=mxgraph.flowchart.start_2;whiteSpace=wrap;" parent="650" vertex="1">
          <mxGeometry x="205" y="185" width="20" height="20" as="geometry" />
        </mxCell>
        <mxCell id="668" value="" style="endArrow=classic;html=1;rounded=0;" parent="650" edge="1">
          <mxGeometry width="50" height="50" relative="1" as="geometry">
            <mxPoint x="214.70999999999998" y="155" as="sourcePoint" />
            <mxPoint x="215.20999999999998" y="185" as="targetPoint" />
          </mxGeometry>
        </mxCell>
        <mxCell id="669" value="" style="endArrow=classic;html=1;rounded=0;entryX=0;entryY=0.5;entryDx=0;entryDy=0;entryPerimeter=0;" parent="650" target="667" edge="1">
          <mxGeometry width="50" height="50" relative="1" as="geometry">
            <mxPoint x="189.99999999999997" y="155" as="sourcePoint" />
            <mxPoint x="190.49999999999997" y="185" as="targetPoint" />
            <Array as="points">
              <mxPoint x="190" y="180" />
            </Array>
          </mxGeometry>
        </mxCell>
        <mxCell id="670" value="" style="endArrow=classic;html=1;rounded=0;entryX=1;entryY=0.5;entryDx=0;entryDy=0;entryPerimeter=0;" parent="650" target="667" edge="1">
          <mxGeometry width="50" height="50" relative="1" as="geometry">
            <mxPoint x="239.99999999999997" y="155" as="sourcePoint" />
            <mxPoint x="240.49999999999997" y="185" as="targetPoint" />
            <Array as="points">
              <mxPoint x="240" y="180" />
            </Array>
          </mxGeometry>
        </mxCell>
        <mxCell id="671" value="" style="endArrow=classic;html=1;rounded=0;" parent="650" edge="1">
          <mxGeometry width="50" height="50" relative="1" as="geometry">
            <mxPoint x="214.70999999999998" y="205" as="sourcePoint" />
            <mxPoint x="215.20999999999998" y="235" as="targetPoint" />
          </mxGeometry>
        </mxCell>
        <mxCell id="672" value="&lt;font data-font-src=&quot;https://fonts.googleapis.com/css?family=Sarabun&quot; face=&quot;Sarabun&quot;&gt;ตัวเชื่อม&lt;/font&gt;" style="text;html=1;align=center;verticalAlign=middle;resizable=0;points=[];autosize=1;strokeColor=none;fillColor=none;" parent="650" vertex="1">
          <mxGeometry x="220" y="190" width="60" height="30" as="geometry" />
        </mxCell>
        <mxCell id="673" value="" style="endArrow=classic;html=1;rounded=0;" parent="650" edge="1">
          <mxGeometry width="50" height="50" relative="1" as="geometry">
            <mxPoint x="353.71" y="165" as="sourcePoint" />
            <mxPoint x="354.21" y="195" as="targetPoint" />
          </mxGeometry>
        </mxCell>
        <mxCell id="674" value="" style="verticalLabelPosition=bottom;verticalAlign=top;html=1;shape=offPageConnector;rounded=0;size=0.5;" parent="650" vertex="1">
          <mxGeometry x="339" y="195" width="30" height="30" as="geometry" />
        </mxCell>
        <mxCell id="675" value="" style="endArrow=classic;html=1;rounded=0;" parent="650" edge="1">
          <mxGeometry width="50" height="50" relative="1" as="geometry">
            <mxPoint x="405.71" y="195" as="sourcePoint" />
            <mxPoint x="406.21" y="225" as="targetPoint" />
          </mxGeometry>
        </mxCell>
        <mxCell id="676" value="" style="verticalLabelPosition=bottom;verticalAlign=top;html=1;shape=offPageConnector;rounded=0;size=0.5;" parent="650" vertex="1">
          <mxGeometry x="391" y="165" width="30" height="30" as="geometry" />
        </mxCell>
        <mxCell id="677" value="หน้าต่อไป" style="text;html=1;align=center;verticalAlign=middle;resizable=0;points=[];autosize=1;strokeColor=none;fillColor=none;fontFamily=Sarabun;fontSource=https%3A%2F%2Ffonts.googleapis.com%2Fcss%3Ffamily%3DSarabun;" parent="650" vertex="1">
          <mxGeometry x="345" y="220" width="70" height="30" as="geometry" />
        </mxCell>
        <mxCell id="678" value="ก" style="text;html=1;align=center;verticalAlign=middle;resizable=0;points=[];autosize=1;strokeColor=none;fillColor=none;fontFamily=Sarabun;fontSource=https%3A%2F%2Ffonts.googleapis.com%2Fcss%3Ffamily%3DSarabun;" parent="650" vertex="1">
          <mxGeometry x="339" y="190" width="30" height="30" as="geometry" />
        </mxCell>
        <mxCell id="679" value="ก" style="text;html=1;align=center;verticalAlign=middle;resizable=0;points=[];autosize=1;strokeColor=none;fillColor=none;fontFamily=Sarabun;fontSource=https%3A%2F%2Ffonts.googleapis.com%2Fcss%3Ffamily%3DSarabun;" parent="650" vertex="1">
          <mxGeometry x="391" y="160" width="30" height="30" as="geometry" />
        </mxCell>
        <mxCell id="680" value="แสดงผล/รับค่า" style="shape=parallelogram;perimeter=parallelogramPerimeter;whiteSpace=wrap;html=1;fixedSize=1;fontFamily=Sarabun;fontSource=https%3A%2F%2Ffonts.googleapis.com%2Fcss%3Ffamily%3DSarabun;" parent="650" vertex="1">
          <mxGeometry x="450" y="210" width="120" height="30" as="geometry" />
        </mxCell>
        <mxCell id="681" value="" style="endArrow=classic;html=1;rounded=0;" parent="650" edge="1">
          <mxGeometry width="50" height="50" relative="1" as="geometry">
            <mxPoint x="509.71" y="180" as="sourcePoint" />
            <mxPoint x="510.21" y="210" as="targetPoint" />
          </mxGeometry>
        </mxCell>
        <mxCell id="682" value="" style="endArrow=classic;html=1;rounded=0;" parent="650" edge="1">
          <mxGeometry width="50" height="50" relative="1" as="geometry">
            <mxPoint x="509.71" y="240" as="sourcePoint" />
            <mxPoint x="510.21" y="270" as="targetPoint" />
          </mxGeometry>
        </mxCell>
        <mxCell id="683" value="แก้ไขโจทย์ปัญหา" style="swimlane;fontFamily=Sarabun;fontSource=https%3A%2F%2Ffonts.googleapis.com%2Fcss%3Ffamily%3DSarabun;fillColor=#dae8fc;strokeColor=#6c8ebf;" parent="WIyWlLk6GJQsqaUBKTNV-1" vertex="1">
          <mxGeometry x="-1580" y="610" width="2430" height="2950" as="geometry" />
        </mxCell>
        <mxCell id="684" value="" style="edgeStyle=none;html=1;" parent="683" source="685" target="688" edge="1">
          <mxGeometry relative="1" as="geometry" />
        </mxCell>
        <mxCell id="685" value="&lt;font data-font-src=&quot;https://fonts.googleapis.com/css?family=Sarabun&quot; face=&quot;Sarabun&quot;&gt;เริ่มต้น&lt;/font&gt;" style="ellipse;whiteSpace=wrap;html=1;" parent="683" vertex="1">
          <mxGeometry x="1123.76" y="80" width="130" height="30" as="geometry" />
        </mxCell>
        <mxCell id="686" value="&lt;font face=&quot;Sarabun&quot;&gt;สิ้นสุด&lt;/font&gt;" style="ellipse;whiteSpace=wrap;html=1;" parent="683" vertex="1">
          <mxGeometry x="1117.8200000000002" y="2260" width="130" height="30" as="geometry" />
        </mxCell>
        <mxCell id="687" value="" style="edgeStyle=none;html=1;" parent="683" source="688" target="691" edge="1">
          <mxGeometry relative="1" as="geometry" />
        </mxCell>
        <mxCell id="688" value="แสดงสินค้าและราคา&lt;div&gt;ภายในตู้&lt;/div&gt;" style="shape=parallelogram;perimeter=parallelogramPerimeter;whiteSpace=wrap;html=1;fixedSize=1;" parent="683" vertex="1">
          <mxGeometry x="1121.26" y="157.44" width="135" height="50" as="geometry" />
        </mxCell>
        <mxCell id="689" value="" style="edgeStyle=none;html=1;" parent="683" source="691" target="694" edge="1">
          <mxGeometry relative="1" as="geometry" />
        </mxCell>
        <mxCell id="690" value="" style="edgeStyle=none;html=1;" parent="683" source="691" target="696" edge="1">
          <mxGeometry relative="1" as="geometry" />
        </mxCell>
        <mxCell id="691" value="&lt;span style=&quot;color: rgb(0, 0, 0);&quot;&gt;เลือกประเภทสินค้า&lt;/span&gt;" style="rhombus;whiteSpace=wrap;html=1;" parent="683" vertex="1">
          <mxGeometry x="1118.51" y="240" width="140.5" height="80" as="geometry" />
        </mxCell>
        <mxCell id="692" value="น้ำ" style="text;html=1;align=center;verticalAlign=middle;whiteSpace=wrap;rounded=0;" parent="683" vertex="1">
          <mxGeometry x="1016.01" y="259" width="60" height="30" as="geometry" />
        </mxCell>
        <mxCell id="693" value="" style="edgeStyle=none;html=1;" parent="683" source="694" target="709" edge="1">
          <mxGeometry relative="1" as="geometry" />
        </mxCell>
        <mxCell id="694" value="ขนม" style="shape=parallelogram;perimeter=parallelogramPerimeter;whiteSpace=wrap;html=1;fixedSize=1;" parent="683" vertex="1">
          <mxGeometry x="1301.76" y="255" width="135" height="50" as="geometry" />
        </mxCell>
        <mxCell id="695" value="" style="edgeStyle=none;html=1;" parent="683" source="696" target="706" edge="1">
          <mxGeometry relative="1" as="geometry" />
        </mxCell>
        <mxCell id="696" value="เครื่องดื่ม" style="shape=parallelogram;perimeter=parallelogramPerimeter;whiteSpace=wrap;html=1;fixedSize=1;" parent="683" vertex="1">
          <mxGeometry x="929.76" y="259" width="135" height="50" as="geometry" />
        </mxCell>
        <mxCell id="zPgbGzBs67ZiDbIkcZHR-869" style="edgeStyle=orthogonalEdgeStyle;rounded=0;orthogonalLoop=1;jettySize=auto;html=1;exitX=0.5;exitY=1;exitDx=0;exitDy=0;" edge="1" parent="683" source="699" target="702">
          <mxGeometry relative="1" as="geometry" />
        </mxCell>
        <mxCell id="699" value="น้ำเขียว กระป๋องละ 12 บาท" style="rhombus;whiteSpace=wrap;html=1;" parent="683" vertex="1">
          <mxGeometry x="911.01" y="464" width="172.5" height="94" as="geometry" />
        </mxCell>
        <mxCell id="zPgbGzBs67ZiDbIkcZHR-870" style="edgeStyle=orthogonalEdgeStyle;rounded=0;orthogonalLoop=1;jettySize=auto;html=1;exitX=0.5;exitY=1;exitDx=0;exitDy=0;entryX=0.5;entryY=0;entryDx=0;entryDy=0;" edge="1" parent="683" source="702" target="703">
          <mxGeometry relative="1" as="geometry" />
        </mxCell>
        <mxCell id="702" value="&lt;span style=&quot;color: rgb(0, 0, 0);&quot;&gt;อเมริกาโน่ 30 บาท&lt;/span&gt;" style="rhombus;whiteSpace=wrap;html=1;" parent="683" vertex="1">
          <mxGeometry x="911" y="586" width="172.5" height="94" as="geometry" />
        </mxCell>
        <mxCell id="zPgbGzBs67ZiDbIkcZHR-872" style="edgeStyle=orthogonalEdgeStyle;rounded=0;orthogonalLoop=1;jettySize=auto;html=1;exitX=0.5;exitY=1;exitDx=0;exitDy=0;entryX=0;entryY=0.5;entryDx=0;entryDy=0;" edge="1" parent="683" source="703" target="855">
          <mxGeometry relative="1" as="geometry" />
        </mxCell>
        <mxCell id="703" value="&lt;span style=&quot;color: rgb(0, 0, 0);&quot;&gt;ลาเต้ หวานเจี๊ยบ 35 บาท&lt;/span&gt;" style="rhombus;whiteSpace=wrap;html=1;" parent="683" vertex="1">
          <mxGeometry x="911" y="709" width="172.5" height="94" as="geometry" />
        </mxCell>
        <mxCell id="zPgbGzBs67ZiDbIkcZHR-868" style="edgeStyle=orthogonalEdgeStyle;rounded=0;orthogonalLoop=1;jettySize=auto;html=1;exitX=0.5;exitY=1;exitDx=0;exitDy=0;entryX=0.5;entryY=0;entryDx=0;entryDy=0;" edge="1" parent="683" source="706" target="699">
          <mxGeometry relative="1" as="geometry" />
        </mxCell>
        <mxCell id="706" value="&lt;span style=&quot;color: rgb(0, 0, 0);&quot;&gt;โค้ก กระป๋องละ 10 บาท&lt;/span&gt;" style="rhombus;whiteSpace=wrap;html=1;" parent="683" vertex="1">
          <mxGeometry x="911.01" y="346" width="172.5" height="94" as="geometry" />
        </mxCell>
        <mxCell id="zPgbGzBs67ZiDbIkcZHR-877" style="edgeStyle=orthogonalEdgeStyle;rounded=0;orthogonalLoop=1;jettySize=auto;html=1;exitX=0.5;exitY=1;exitDx=0;exitDy=0;entryX=0.5;entryY=0;entryDx=0;entryDy=0;" edge="1" parent="683" source="709" target="712">
          <mxGeometry relative="1" as="geometry" />
        </mxCell>
        <mxCell id="709" value="&lt;span style=&quot;color: rgb(0, 0, 0);&quot;&gt;เมล็ดทานตะวัน 13 บาท&lt;/span&gt;" style="rhombus;whiteSpace=wrap;html=1;" parent="683" vertex="1">
          <mxGeometry x="1284.64" y="344" width="172.5" height="94" as="geometry" />
        </mxCell>
        <mxCell id="zPgbGzBs67ZiDbIkcZHR-878" style="edgeStyle=orthogonalEdgeStyle;rounded=0;orthogonalLoop=1;jettySize=auto;html=1;exitX=0.5;exitY=1;exitDx=0;exitDy=0;entryX=0.5;entryY=0;entryDx=0;entryDy=0;" edge="1" parent="683" source="712" target="769">
          <mxGeometry relative="1" as="geometry" />
        </mxCell>
        <mxCell id="712" value="&lt;span style=&quot;color: rgb(0, 0, 0);&quot;&gt;ถั่วเเปบ 20 บาท&lt;/span&gt;" style="rhombus;whiteSpace=wrap;html=1;" parent="683" vertex="1">
          <mxGeometry x="1284.64" y="464" width="172.5" height="94" as="geometry" />
        </mxCell>
        <mxCell id="713" value="" style="edgeStyle=none;html=1;" parent="683" source="715" target="719" edge="1">
          <mxGeometry relative="1" as="geometry" />
        </mxCell>
        <mxCell id="714" style="edgeStyle=none;html=1;entryX=0;entryY=0.5;entryDx=0;entryDy=0;" parent="683" source="715" target="717" edge="1">
          <mxGeometry relative="1" as="geometry" />
        </mxCell>
        <mxCell id="715" value="เลือกช่องทางการชำระเงิน" style="rhombus;whiteSpace=wrap;html=1;" parent="683" vertex="1">
          <mxGeometry x="1114.8800000000003" y="1360" width="149.5" height="110" as="geometry" />
        </mxCell>
        <mxCell id="716" style="edgeStyle=none;html=1;entryX=0.5;entryY=0;entryDx=0;entryDy=0;" parent="683" source="717" target="721" edge="1">
          <mxGeometry relative="1" as="geometry" />
        </mxCell>
        <mxCell id="717" value="เเสกนจ่าย" style="shape=parallelogram;perimeter=parallelogramPerimeter;whiteSpace=wrap;html=1;fixedSize=1;" parent="683" vertex="1">
          <mxGeometry x="1358.4600000000003" y="1385" width="120" height="60" as="geometry" />
        </mxCell>
        <mxCell id="718" value="" style="edgeStyle=none;html=1;" parent="683" source="719" target="723" edge="1">
          <mxGeometry relative="1" as="geometry" />
        </mxCell>
        <mxCell id="719" value="เงินสด" style="shape=parallelogram;perimeter=parallelogramPerimeter;whiteSpace=wrap;html=1;fixedSize=1;" parent="683" vertex="1">
          <mxGeometry x="893.19" y="1385" width="120" height="60" as="geometry" />
        </mxCell>
        <mxCell id="720" value="" style="edgeStyle=none;html=1;" parent="683" source="721" target="862" edge="1">
          <mxGeometry relative="1" as="geometry" />
        </mxCell>
        <mxCell id="721" value="แสดง QR Code" style="shape=parallelogram;perimeter=parallelogramPerimeter;whiteSpace=wrap;html=1;fixedSize=1;" parent="683" vertex="1">
          <mxGeometry x="1358.4600000000003" y="1530" width="120" height="60" as="geometry" />
        </mxCell>
        <mxCell id="722" value="" style="edgeStyle=none;html=1;" parent="683" source="723" target="726" edge="1">
          <mxGeometry relative="1" as="geometry" />
        </mxCell>
        <mxCell id="723" value="รวมยอดเงินที่ใส่เข้ามาในตู้" style="shape=process;whiteSpace=wrap;html=1;backgroundOutline=1;" parent="683" vertex="1">
          <mxGeometry x="880" y="1535" width="150" height="60" as="geometry" />
        </mxCell>
        <mxCell id="724" value="" style="edgeStyle=none;html=1;" parent="683" source="726" target="728" edge="1">
          <mxGeometry relative="1" as="geometry" />
        </mxCell>
        <mxCell id="zPgbGzBs67ZiDbIkcZHR-879" style="edgeStyle=orthogonalEdgeStyle;rounded=0;orthogonalLoop=1;jettySize=auto;html=1;exitX=0.5;exitY=1;exitDx=0;exitDy=0;entryX=0;entryY=0.5;entryDx=0;entryDy=0;" edge="1" parent="683" source="726" target="734">
          <mxGeometry relative="1" as="geometry" />
        </mxCell>
        <mxCell id="726" value="ใส่เงินเกินราคาของ&lt;div&gt;สินค้าหรือไม่&lt;/div&gt;" style="rhombus;whiteSpace=wrap;html=1;" parent="683" vertex="1">
          <mxGeometry x="885" y="1701" width="136.38" height="100" as="geometry" />
        </mxCell>
        <mxCell id="727" value="" style="edgeStyle=none;html=1;" parent="683" source="728" target="730" edge="1">
          <mxGeometry relative="1" as="geometry" />
        </mxCell>
        <mxCell id="728" value="ทอนเงินตามจำนวนที่เกินมา" style="rounded=0;whiteSpace=wrap;html=1;" parent="683" vertex="1">
          <mxGeometry x="1114.8500000000004" y="1725" width="135.94" height="60" as="geometry" />
        </mxCell>
        <mxCell id="729" value="" style="edgeStyle=none;html=1;" parent="683" source="730" target="732" edge="1">
          <mxGeometry relative="1" as="geometry" />
        </mxCell>
        <mxCell id="730" value="เรียงจากธนาบัตรที่มีค่ามากที่สุดจนไปถึงน้อยสุด" style="rounded=0;whiteSpace=wrap;html=1;" parent="683" vertex="1">
          <mxGeometry x="1111.88" y="1815" width="141.88" height="60" as="geometry" />
        </mxCell>
        <mxCell id="731" value="" style="edgeStyle=none;html=1;" parent="683" source="732" target="736" edge="1">
          <mxGeometry relative="1" as="geometry" />
        </mxCell>
        <mxCell id="732" value="เรียงจากเหรียญที่มีค่ามากที่สุดจนไปถึงน้อยที่สุด" style="rounded=0;whiteSpace=wrap;html=1;" parent="683" vertex="1">
          <mxGeometry x="1111.88" y="1913" width="141.88" height="60" as="geometry" />
        </mxCell>
        <mxCell id="733" value="" style="edgeStyle=none;html=1;" parent="683" source="734" target="738" edge="1">
          <mxGeometry relative="1" as="geometry" />
        </mxCell>
        <mxCell id="734" value="" style="ellipse;whiteSpace=wrap;html=1;aspect=fixed;" parent="683" vertex="1">
          <mxGeometry x="1168.8200000000004" y="2097" width="28" height="28" as="geometry" />
        </mxCell>
        <mxCell id="735" style="edgeStyle=none;html=1;entryX=0.5;entryY=0;entryDx=0;entryDy=0;" parent="683" source="736" edge="1">
          <mxGeometry relative="1" as="geometry">
            <mxPoint x="1183.7600000000004" y="2097" as="targetPoint" />
          </mxGeometry>
        </mxCell>
        <mxCell id="736" value="&lt;span style=&quot;color: rgb(0, 0, 0);&quot;&gt;ทอนเงิน&lt;/span&gt;" style="shape=parallelogram;perimeter=parallelogramPerimeter;whiteSpace=wrap;html=1;fixedSize=1;" parent="683" vertex="1">
          <mxGeometry x="1124.7600000000002" y="2005" width="120" height="60" as="geometry" />
        </mxCell>
        <mxCell id="737" value="" style="edgeStyle=none;html=1;entryX=0.5;entryY=0;entryDx=0;entryDy=0;" parent="683" source="738" target="686" edge="1">
          <mxGeometry relative="1" as="geometry">
            <mxPoint x="1184.116666666667" y="2255" as="targetPoint" />
          </mxGeometry>
        </mxCell>
        <mxCell id="738" value="&lt;span style=&quot;color: rgb(0, 0, 0);&quot;&gt;จ่ายสินค้า&lt;/span&gt;" style="shape=parallelogram;perimeter=parallelogramPerimeter;whiteSpace=wrap;html=1;fixedSize=1;" parent="683" vertex="1">
          <mxGeometry x="1122.8200000000002" y="2165" width="120" height="60" as="geometry" />
        </mxCell>
        <mxCell id="741" value="" style="edgeStyle=none;html=1;" parent="683" source="743" target="749" edge="1">
          <mxGeometry relative="1" as="geometry" />
        </mxCell>
        <mxCell id="742" value="" style="edgeStyle=none;html=1;" parent="683" source="743" target="746" edge="1">
          <mxGeometry relative="1" as="geometry" />
        </mxCell>
        <mxCell id="743" value="&lt;span style=&quot;color: rgb(0, 0, 0);&quot;&gt;เช็คว่ามีสินค้าหรือไม่&lt;/span&gt;" style="rhombus;whiteSpace=wrap;html=1;" parent="683" vertex="1">
          <mxGeometry x="1101.76" y="891" width="172.5" height="94" as="geometry" />
        </mxCell>
        <mxCell id="744" style="edgeStyle=none;html=1;entryX=0;entryY=0.5;entryDx=0;entryDy=0;" parent="683" source="746" target="750" edge="1">
          <mxGeometry relative="1" as="geometry" />
        </mxCell>
        <mxCell id="745" value="" style="edgeStyle=none;html=1;" parent="683" source="746" target="754" edge="1">
          <mxGeometry relative="1" as="geometry" />
        </mxCell>
        <mxCell id="746" value="&lt;span style=&quot;color: rgb(0, 0, 0);&quot;&gt;เช็คว่าสินค้าหมดอายุเเล้วหรือยัง&lt;/span&gt;" style="rhombus;whiteSpace=wrap;html=1;" parent="683" vertex="1">
          <mxGeometry x="1101.76" y="1070" width="172.5" height="94" as="geometry" />
        </mxCell>
        <mxCell id="747" value="มี" style="text;html=1;align=center;verticalAlign=middle;whiteSpace=wrap;rounded=0;" parent="683" vertex="1">
          <mxGeometry x="1170.76" y="985" width="60" height="38" as="geometry" />
        </mxCell>
        <mxCell id="748" value="ไม่มี" style="text;html=1;align=center;verticalAlign=middle;whiteSpace=wrap;rounded=0;" parent="683" vertex="1">
          <mxGeometry x="1276.76" y="916" width="60" height="30" as="geometry" />
        </mxCell>
        <mxCell id="749" value="ไม่มีสินค้า" style="shape=parallelogram;perimeter=parallelogramPerimeter;whiteSpace=wrap;html=1;fixedSize=1;" parent="683" vertex="1">
          <mxGeometry x="1341.76" y="910" width="120" height="60" as="geometry" />
        </mxCell>
        <mxCell id="750" value="สินค้าหมดอายุ" style="shape=parallelogram;perimeter=parallelogramPerimeter;whiteSpace=wrap;html=1;fixedSize=1;" parent="683" vertex="1">
          <mxGeometry x="1341.76" y="1087" width="120" height="60" as="geometry" />
        </mxCell>
        <mxCell id="751" value="หมดอายุ" style="text;html=1;align=center;verticalAlign=middle;whiteSpace=wrap;rounded=0;" parent="683" vertex="1">
          <mxGeometry x="1284.6399999999999" y="1090" width="52.88" height="23" as="geometry" />
        </mxCell>
        <mxCell id="752" value="ยังไม่หมดอายุ" style="text;html=1;align=center;verticalAlign=middle;whiteSpace=wrap;rounded=0;" parent="683" vertex="1">
          <mxGeometry x="1197.76" y="1172" width="79" height="30" as="geometry" />
        </mxCell>
        <mxCell id="zPgbGzBs67ZiDbIkcZHR-876" style="edgeStyle=orthogonalEdgeStyle;rounded=0;orthogonalLoop=1;jettySize=auto;html=1;exitX=0.5;exitY=1;exitDx=0;exitDy=0;entryX=0.5;entryY=0;entryDx=0;entryDy=0;" edge="1" parent="683" source="754" target="715">
          <mxGeometry relative="1" as="geometry" />
        </mxCell>
        <mxCell id="754" value="ยืนยันการเลือกสินค้า" style="shape=parallelogram;perimeter=parallelogramPerimeter;whiteSpace=wrap;html=1;fixedSize=1;" parent="683" vertex="1">
          <mxGeometry x="1123.76" y="1241" width="131.75" height="60" as="geometry" />
        </mxCell>
        <mxCell id="zPgbGzBs67ZiDbIkcZHR-873" style="edgeStyle=orthogonalEdgeStyle;rounded=0;orthogonalLoop=1;jettySize=auto;html=1;exitX=0.5;exitY=1;exitDx=0;exitDy=0;entryX=1;entryY=0.5;entryDx=0;entryDy=0;" edge="1" parent="683" source="769" target="855">
          <mxGeometry relative="1" as="geometry" />
        </mxCell>
        <mxCell id="769" value="&lt;span style=&quot;color: rgb(0, 0, 0);&quot;&gt;จิ้นส้มหมก 15 บาท&lt;/span&gt;" style="rhombus;whiteSpace=wrap;html=1;" parent="683" vertex="1">
          <mxGeometry x="1284.6399999999999" y="586" width="172.5" height="94" as="geometry" />
        </mxCell>
        <mxCell id="zPgbGzBs67ZiDbIkcZHR-875" style="edgeStyle=orthogonalEdgeStyle;rounded=0;orthogonalLoop=1;jettySize=auto;html=1;exitX=0.5;exitY=1;exitDx=0;exitDy=0;entryX=0.5;entryY=0;entryDx=0;entryDy=0;" edge="1" parent="683" source="855" target="743">
          <mxGeometry relative="1" as="geometry" />
        </mxCell>
        <mxCell id="855" value="" style="ellipse;whiteSpace=wrap;html=1;aspect=fixed;" parent="683" vertex="1">
          <mxGeometry x="1170.76" y="811" width="36" height="36" as="geometry" />
        </mxCell>
        <mxCell id="858" style="edgeStyle=none;html=1;entryX=1;entryY=0.5;entryDx=0;entryDy=0;" parent="683" source="860" target="734" edge="1">
          <mxGeometry relative="1" as="geometry">
            <Array as="points">
              <mxPoint x="1421.4600000000003" y="2111" />
            </Array>
          </mxGeometry>
        </mxCell>
        <mxCell id="859" style="edgeStyle=none;html=1;entryX=1;entryY=0.5;entryDx=0;entryDy=0;" parent="683" source="860" target="862" edge="1">
          <mxGeometry relative="1" as="geometry">
            <Array as="points">
              <mxPoint x="1545.4600000000003" y="1886" />
              <mxPoint x="1546.4600000000003" y="1756" />
            </Array>
          </mxGeometry>
        </mxCell>
        <mxCell id="860" value="เงินเข้าระบบหรือยัง" style="rhombus;whiteSpace=wrap;html=1;" parent="683" vertex="1">
          <mxGeometry x="1342.4600000000003" y="1824" width="156" height="121" as="geometry" />
        </mxCell>
        <mxCell id="861" value="" style="edgeStyle=none;html=1;" parent="683" source="862" target="860" edge="1">
          <mxGeometry relative="1" as="geometry" />
        </mxCell>
        <mxCell id="862" value="" style="ellipse;whiteSpace=wrap;html=1;aspect=fixed;" parent="683" vertex="1">
          <mxGeometry x="1402.4600000000003" y="1737" width="36" height="36" as="geometry" />
        </mxCell>
        <mxCell id="863" value="ยัง" style="text;html=1;align=center;verticalAlign=middle;whiteSpace=wrap;rounded=0;" parent="683" vertex="1">
          <mxGeometry x="1483.9600000000003" y="1860" width="60" height="30" as="geometry" />
        </mxCell>
        <mxCell id="864" value="เข้าเเล้ว" style="text;html=1;align=center;verticalAlign=middle;whiteSpace=wrap;rounded=0;" parent="683" vertex="1">
          <mxGeometry x="1412.8200000000002" y="1945" width="60" height="30" as="geometry" />
        </mxCell>
        <mxCell id="865" value="&lt;font data-font-src=&quot;https://fonts.googleapis.com/css?family=Sarabun&quot; face=&quot;Sarabun&quot;&gt;โจทย์ปัญหา&lt;/font&gt;" style="swimlane;whiteSpace=wrap;html=1;" parent="WIyWlLk6GJQsqaUBKTNV-1" vertex="1">
          <mxGeometry x="-720" y="320" width="640" height="240" as="geometry" />
        </mxCell>
        <mxCell id="866" value="&lt;font data-font-src=&quot;https://fonts.googleapis.com/css?family=Sarabun&quot; face=&quot;Sarabun&quot; style=&quot;font-size: 14px;&quot;&gt;จงเขียน Flowchart เพื่อแสดงขั้นตอนการทำงาน ของเครื่องขายน้ำอัตโนมัติที่ชื่อว่า &quot;ตะพาบลอย&quot;&lt;br&gt;โดยจะต้องมีสินค้าดังนี้&lt;br&gt;&lt;u&gt;ประเภทน้ำ&lt;span style=&quot;white-space: pre;&quot;&gt;&#x9;&lt;/span&gt;&lt;span style=&quot;white-space: pre;&quot;&gt;&#x9;&lt;/span&gt;&lt;span style=&quot;white-space: pre;&quot;&gt;&#x9;&lt;/span&gt;&lt;span style=&quot;white-space: pre;&quot;&gt;&#x9;&lt;/span&gt;&lt;span style=&quot;white-space: pre;&quot;&gt;&#x9;&lt;/span&gt;&lt;span style=&quot;white-space: pre;&quot;&gt;&#x9;&lt;span style=&quot;white-space: pre;&quot;&gt;&#x9;&lt;/span&gt;ข&lt;/span&gt;นม&lt;/u&gt;&lt;br&gt;&lt;span style=&quot;white-space: pre;&quot;&gt;&#x9;&lt;/span&gt;- โค้ก กระป๋องละ 10 บาท&lt;span style=&quot;white-space: pre;&quot;&gt;&#x9;&lt;/span&gt;&lt;span style=&quot;white-space: pre;&quot;&gt;&#x9;&lt;/span&gt;&lt;span style=&quot;white-space: pre;&quot;&gt;&#x9;&lt;/span&gt;&lt;span style=&quot;white-space: pre;&quot;&gt;&#x9;&lt;/span&gt;- เมล็ดทานตะวัน 13 บาท&lt;br&gt;&lt;span style=&quot;white-space: pre;&quot;&gt;&#x9;&lt;/span&gt;- น้ำเขียว กระป๋องละ 12 บาท&lt;span style=&quot;white-space: pre;&quot;&gt;&#x9;&lt;/span&gt;&lt;span style=&quot;white-space: pre;&quot;&gt;&#x9;&lt;/span&gt;&lt;span style=&quot;white-space: pre;&quot;&gt;&#x9;&lt;/span&gt;- ถั่วแปบ 20 บาท&lt;br&gt;&lt;span style=&quot;white-space: pre;&quot;&gt;&#x9;&lt;/span&gt;- อเมริกาโน่ 30 บาท&lt;span style=&quot;white-space: pre;&quot;&gt;&#x9;&lt;/span&gt;&lt;span style=&quot;white-space: pre;&quot;&gt;&#x9;&lt;/span&gt;&lt;span style=&quot;white-space: pre;&quot;&gt;&#x9;&lt;/span&gt;&lt;span style=&quot;white-space: pre;&quot;&gt;&#x9;&lt;/span&gt;&lt;span style=&quot;white-space: pre;&quot;&gt;&#x9;&lt;/span&gt;- จิ้นส้มหมก 15 บาท&lt;br&gt;&lt;span style=&quot;white-space: pre;&quot;&gt;&#x9;&lt;/span&gt;- ลาเต้ หวานเจี๊ยบ 35 บาท&lt;span style=&quot;white-space: pre;&quot;&gt;&#x9;&lt;/span&gt;&lt;br&gt;&lt;br&gt;&lt;u&gt;สิ่งที่ระบบควรจะทำได้&lt;/u&gt;&lt;br&gt;&lt;span style=&quot;white-space: pre;&quot;&gt;&#x9;&lt;/span&gt;- ลูกค้าเลือกสินค้า, ระบบจะต้องรวมยอดขาย และรวมรายการสินค้าทั้งหมดที่ลูกค้าเลือก&lt;br&gt;&lt;span style=&quot;white-space: pre;&quot;&gt;&#x9;&lt;/span&gt;- สรุปยอดว่าเหลือเงินในตู้อีกเท่าไหร่ เหลือเหรียญอะไรบ้าง? ธนบัตรอะไรบ้าง? อย่างละเท่าไหร่?&lt;br&gt;&lt;br&gt;&lt;br&gt;&lt;/font&gt;" style="text;html=1;align=left;verticalAlign=middle;resizable=0;points=[];autosize=1;strokeColor=none;fillColor=none;fontSize=14;" parent="865" vertex="1">
          <mxGeometry x="25" y="30" width="580" height="240" as="geometry" />
        </mxCell>
      </root>
    </mxGraphModel>
  </diagram>
</mxfile>
